<svg width="350" height="50" viewBox="0 0 350 50" fill="none" xmlns="http://www.w3.org/2000/svg">
<path d="M87.276 19.21C86.52 17.754 85.47 16.662 84.126 15.934C82.782 15.178 81.228 14.8 79.464 14.8C77.532 14.8 75.81 15.234 74.298 16.102C72.786 16.97 71.596 18.202 70.728 19.798C69.888 21.394 69.468 23.242 69.468 25.342C69.468 27.442 69.888 29.304 70.728 30.928C71.596 32.524 72.786 33.756 74.298 34.624C75.81 35.492 77.532 35.926 79.464 35.926C82.068 35.926 84.182 35.198 85.806 33.742C87.43 32.286 88.424 30.312 88.788 27.82H77.826V23.998H93.912V27.736C93.604 30.004 92.792 32.09 91.476 33.994C90.188 35.898 88.494 37.424 86.394 38.572C84.322 39.692 82.012 40.252 79.464 40.252C76.72 40.252 74.214 39.622 71.946 38.362C69.678 37.074 67.872 35.296 66.528 33.028C65.212 30.76 64.554 28.198 64.554 25.342C64.554 22.486 65.212 19.924 66.528 17.656C67.872 15.388 69.678 13.624 71.946 12.364C74.242 11.076 76.748 10.432 79.464 10.432C82.572 10.432 85.33 11.202 87.738 12.742C90.174 14.254 91.938 16.41 93.03 19.21H87.276ZM120.264 10.81L110.604 29.416V40H105.816V29.416L96.1144 10.81H101.448L108.21 25.132L114.972 10.81H120.264ZM154.808 10.81V40H150.02V20.008L141.116 40H137.798L128.852 20.008V40H124.064V10.81H129.23L139.478 33.7L149.684 10.81H154.808ZM183.025 20.008C183.025 21.716 182.633 23.284 181.849 24.712C181.065 26.112 179.861 27.246 178.237 28.114C176.613 28.982 174.597 29.416 172.189 29.416H167.737V40H160.555V10.516H172.189C174.541 10.516 176.529 10.922 178.153 11.734C179.777 12.546 180.995 13.666 181.807 15.094C182.619 16.522 183.025 18.16 183.025 20.008ZM171.643 23.704C173.015 23.704 174.037 23.382 174.709 22.738C175.381 22.094 175.717 21.184 175.717 20.008C175.717 18.832 175.381 17.922 174.709 17.278C174.037 16.634 173.015 16.312 171.643 16.312H167.737V23.704H171.643ZM201.8 40L195.668 28.87H193.946V40H186.764V10.516H198.818C201.142 10.516 203.116 10.922 204.74 11.734C206.392 12.546 207.624 13.666 208.436 15.094C209.248 16.494 209.654 18.062 209.654 19.798C209.654 21.758 209.094 23.508 207.974 25.048C206.882 26.588 205.258 27.68 203.102 28.324L209.906 40H201.8ZM193.946 23.788H198.398C199.714 23.788 200.694 23.466 201.338 22.822C202.01 22.178 202.346 21.268 202.346 20.092C202.346 18.972 202.01 18.09 201.338 17.446C200.694 16.802 199.714 16.48 198.398 16.48H193.946V23.788ZM228.107 40.294C225.335 40.294 222.787 39.65 220.463 38.362C218.167 37.074 216.333 35.282 214.961 32.986C213.617 30.662 212.945 28.058 212.945 25.174C212.945 22.29 213.617 19.7 214.961 17.404C216.333 15.108 218.167 13.316 220.463 12.028C222.787 10.74 225.335 10.096 228.107 10.096C230.879 10.096 233.413 10.74 235.709 12.028C238.033 13.316 239.853 15.108 241.169 17.404C242.513 19.7 243.185 22.29 243.185 25.174C243.185 28.058 242.513 30.662 241.169 32.986C239.825 35.282 238.005 37.074 235.709 38.362C233.413 39.65 230.879 40.294 228.107 40.294ZM228.107 33.742C230.459 33.742 232.335 32.958 233.735 31.39C235.163 29.822 235.877 27.75 235.877 25.174C235.877 22.57 235.163 20.498 233.735 18.958C232.335 17.39 230.459 16.606 228.107 16.606C225.727 16.606 223.823 17.376 222.395 18.916C220.995 20.456 220.295 22.542 220.295 25.174C220.295 27.778 220.995 29.864 222.395 31.432C223.823 32.972 225.727 33.742 228.107 33.742ZM265.66 10.516V30.592C265.66 33.7 264.778 36.094 263.014 37.774C261.278 39.454 258.926 40.294 255.958 40.294C252.85 40.294 250.358 39.412 248.482 37.648C246.606 35.884 245.668 33.378 245.668 30.13H252.808C252.808 31.362 253.06 32.3 253.564 32.944C254.068 33.56 254.796 33.868 255.748 33.868C256.616 33.868 257.288 33.588 257.764 33.028C258.24 32.468 258.478 31.656 258.478 30.592V10.516H265.66ZM278.643 16.27V22.234H288.261V27.778H278.643V34.246H289.521V40H271.461V10.516H289.521V16.27H278.643ZM292.966 25.216C292.966 22.304 293.596 19.714 294.856 17.446C296.116 15.15 297.866 13.372 300.106 12.112C302.374 10.824 304.936 10.18 307.792 10.18C311.292 10.18 314.288 11.104 316.78 12.952C319.272 14.8 320.938 17.32 321.778 20.512H313.882C313.294 19.28 312.454 18.342 311.362 17.698C310.298 17.054 309.08 16.732 307.708 16.732C305.496 16.732 303.704 17.502 302.332 19.042C300.96 20.582 300.274 22.64 300.274 25.216C300.274 27.792 300.96 29.85 302.332 31.39C303.704 32.93 305.496 33.7 307.708 33.7C309.08 33.7 310.298 33.378 311.362 32.734C312.454 32.09 313.294 31.152 313.882 29.92H321.778C320.938 33.112 319.272 35.632 316.78 37.48C314.288 39.3 311.292 40.21 307.792 40.21C304.936 40.21 302.374 39.58 300.106 38.32C297.866 37.032 296.116 35.254 294.856 32.986C293.596 30.718 292.966 28.128 292.966 25.216ZM347.386 10.516V16.27H339.574V40H332.392V16.27H324.58V10.516H347.386Z" fill="#1a1a1a"/>
<path fill-rule="evenodd" clip-rule="evenodd" d="M25 49C38.2548 49 49 38.2548 49 25C49 17.3937 45.4616 10.6139 39.9411 6.2168L27.7789 21.1143L39 27.4L18.5819 48.1322C20.6248 48.6978 22.7771 49 25 49ZM16.2365 47.3497L24.44 31L13 25.3048L29.1764 1.36211C27.8201 1.12411 26.4245 1 25 1C11.7452 1 1 11.7452 1 25C1 35.1622 7.31592 43.8492 16.2365 47.3497Z" fill="#6610f2"/>
</svg>
